<svg xmlns="http://www.w3.org/2000/svg" viewBox="0 0 150 150"><path fill="#130e27" d="M150 75c0 41.421-33.581 75-75 75-41.418 0-75-33.579-75-75C0 33.58 33.582 0 75 0c41.419 0 75 33.58 75 75zm-12.817 6.25h-5.933A6.247 6.247 0 01125 75a6.246 6.246 0 016.25-6.25h5.933c-2.93-29.526-26.41-53.003-55.933-55.935v5.935A6.249 6.249 0 0175 25a6.249 6.249 0 01-6.25-6.25v-5.935c-29.522 2.932-53.003 26.41-55.933 55.935h5.933A6.246 6.246 0 0125 75a6.247 6.247 0 01-6.25 6.25h-5.933c2.93 29.526 26.41 53.004 55.933 55.936v-5.936A6.247 6.247 0 0175 125a6.247 6.247 0 016.25 6.25v5.936c29.523-2.932 53.003-26.41 55.933-55.936zM35.23 79.413l70.709-35.358-35.357 70.716-8.839-26.513zm56.732-21.38L51.514 78.26l12.207 4.064 2.966.99.982 2.966 4.072 12.2z"/></svg>